<?xml version="1.0" encoding="utf-8"?>
<!-- Generator: Adobe Illustrator 24.3.0, SVG Export Plug-In . SVG Version: 6.00 Build 0)  -->
<svg version="1.1" id="Layer_1" xmlns="http://www.w3.org/2000/svg" xmlns:xlink="http://www.w3.org/1999/xlink" x="0px" y="0px"
	 viewBox="0 0 144 38" style="enable-background:new 0 0 144 38;" xml:space="preserve">
<style type="text/css">
	.st0{fill-rule:evenodd;clip-rule:evenodd;fill:#007AFF;}
	.st1{fill:#007AFF;}
	.st2{font-family:'Impact';}
	.st3{font-size:37.9628px;}
</style>
<path class="st0" d="M0,17.8C0,11.3,0,8,2,6c2-2,5.3-2,11.8-2h3.4C23.7,4,27,4,29,6c2,2,2,5.3,2,11.8v3.4c0,6.5,0,9.7-2,11.8
	c-2,2-5.3,2-11.8,2h-3.4C7.3,35,4,35,2,33c-2-2-2-5.3-2-11.8V17.8z M25.8,11.8c0,1.4-1.2,2.6-2.6,2.6s-2.6-1.2-2.6-2.6
	s1.2-2.6,2.6-2.6S25.8,10.3,25.8,11.8z M18.9,21.2c0,1.9-1.5,3.4-3.4,3.4s-3.4-1.5-3.4-3.4c0-1.9,1.5-3.4,3.4-3.4
	S18.9,19.3,18.9,21.2z M22.4,21.2c0,3.8-3.1,6.9-6.9,6.9S8.6,25,8.6,21.2c0-3.8,3.1-6.9,6.9-6.9S22.4,17.4,22.4,21.2z"/>
<text transform="matrix(0.8154 0 0 1 31.9005 34.7082)" class="st1 st2 st3">RCIMGEN</text>
</svg>
